# xmcd
#
# Track frame offsets:
#	150
#	45424
#	90698
#	136238
#	179914
#	224388
#	270295
#	315568
#
# Disc length: 4436 seconds
#
# Revision: 0
# Processed by: cddbd v1.4PL0 Copyright (c) Steve Scherf et al.
# Submitted via: audiograbber 1.82.01
#
DISCID=6d115208
DTITLE=Alex Neri - Underground City 01-01-03
DYEAR=1900
DGENRE=House
TTITLE0=alex neri 1 capodanno 2002003
TTITLE1=alex neri 2 capodanno 2002003
TTITLE2=alex neri 3 capodanno 2002003
TTITLE3=alex neri 4 capodanno 2002003
TTITLE4=alex neri 5 capodanno 2002003
TTITLE5=alex neri 6 capodanno 2002003
TTITLE6=alex neri 7 capodanno 2002003
TTITLE7=alex neri 8 capodanno 2002003
EXTD=
EXTT0=
EXTT1=
EXTT2=
EXTT3=
EXTT4=
EXTT5=
EXTT6=
EXTT7=
PLAYORDER=
